{
	"asset":{
		"generator":"Khronos glTF Blender I/O v5.0.21",
		"version":"2.0"
	},
	"scene":0,
	"scenes":[
		{
			"name":"Scene",
			"nodes":[
				10
			]
		}
	],
	"nodes":[
		{
			"name":"bPonytail.L",
			"rotation":[
				0.00662729237228632,
				-0.03153142333030701,
				-0.9792096614837646,
				0.200275719165802
			],
			"scale":[
				0.9999983906745911,
				0.9999999403953552,
				0.9999999403953552
			],
			"translation":[
				0.8107858896255493,
				1.0156159400939941,
				-0.7681128978729248
			]
		},
		{
			"name":"bPonytail.R",
			"rotation":[
				0.00662729237228632,
				0.03153142333030701,
				0.9792096614837646,
				0.200275719165802
			],
			"scale":[
				0.9999983906745911,
				0.9999999403953552,
				0.9999999403953552
			],
			"translation":[
				-0.8107858896255493,
				1.0156159400939941,
				-0.7681128978729248
			]
		},
		{
			"children":[
				0,
				1
			],
			"name":"bHead",
			"translation":[
				0,
				0.8396298289299011,
				0
			]
		},
		{
			"name":"bArm.L",
			"rotation":[
				0.04975598677992821,
				-0.18258315324783325,
				-0.9496066570281982,
				0.2498699128627777
			],
			"scale":[
				1.0000001192092896,
				1.0000001192092896,
				1.0000001192092896
			],
			"translation":[
				0.2737341523170471,
				0.6288356184959412,
				0.05077158287167549
			]
		},
		{
			"name":"bLeg.L",
			"rotation":[
				3.5493481846060604e-05,
				-0.0319061279296875,
				0.9992147088050842,
				0.023494403809309006
			],
			"scale":[
				1.000003457069397,
				0.9999999403953552,
				1.0000061988830566
			],
			"translation":[
				0.21135996282100677,
				-0.1569122076034546,
				0.17069168388843536
			]
		},
		{
			"name":"bArm.R",
			"rotation":[
				0.09913107752799988,
				0.43711328506469727,
				0.5523568391799927,
				0.7028563022613525
			],
			"scale":[
				0.9999999403953552,
				0.9999999403953552,
				1
			],
			"translation":[
				-0.3039928078651428,
				0.6739934086799622,
				2.533322529529869e-08
			]
		},
		{
			"name":"bLeg.R",
			"rotation":[
				3.5493481846060604e-05,
				0.0319061279296875,
				-0.9992147088050842,
				0.023494403809309006
			],
			"scale":[
				1.000003457069397,
				0.9999999403953552,
				1.0000061988830566
			],
			"translation":[
				-0.21135996282100677,
				-0.1569122076034546,
				0.17069168388843536
			]
		},
		{
			"children":[
				2,
				3,
				4,
				5,
				6
			],
			"name":"bBody",
			"translation":[
				0,
				0.9626215100288391,
				0
			]
		},
		{
			"children":[
				7
			],
			"name":"bRoot"
		},
		{
			"mesh":0,
			"name":"bBody",
			"skin":0
		},
		{
			"children":[
				9,
				8
			],
			"name":"Miku"
		}
	],
	"animations":[
		{
			"channels":[
				{
					"sampler":0,
					"target":{
						"node":2,
						"path":"rotation"
					}
				},
				{
					"sampler":1,
					"target":{
						"node":3,
						"path":"rotation"
					}
				},
				{
					"sampler":2,
					"target":{
						"node":5,
						"path":"rotation"
					}
				}
			],
			"name":"headbang",
			"samplers":[
				{
					"input":17,
					"interpolation":"CUBICSPLINE",
					"output":18
				},
				{
					"input":17,
					"interpolation":"CUBICSPLINE",
					"output":19
				},
				{
					"input":17,
					"interpolation":"CUBICSPLINE",
					"output":20
				}
			]
		},
		{
			"channels":[
				{
					"sampler":0,
					"target":{
						"node":4,
						"path":"rotation"
					}
				},
				{
					"sampler":1,
					"target":{
						"node":8,
						"path":"rotation"
					}
				},
				{
					"sampler":2,
					"target":{
						"node":2,
						"path":"rotation"
					}
				},
				{
					"sampler":3,
					"target":{
						"node":6,
						"path":"rotation"
					}
				},
				{
					"sampler":4,
					"target":{
						"node":7,
						"path":"rotation"
					}
				},
				{
					"sampler":5,
					"target":{
						"node":5,
						"path":"rotation"
					}
				},
				{
					"sampler":6,
					"target":{
						"node":1,
						"path":"rotation"
					}
				},
				{
					"sampler":7,
					"target":{
						"node":0,
						"path":"rotation"
					}
				},
				{
					"sampler":8,
					"target":{
						"node":3,
						"path":"rotation"
					}
				}
			],
			"name":"tpose",
			"samplers":[
				{
					"input":21,
					"interpolation":"LINEAR",
					"output":22
				},
				{
					"input":21,
					"interpolation":"LINEAR",
					"output":23
				},
				{
					"input":21,
					"interpolation":"LINEAR",
					"output":23
				},
				{
					"input":21,
					"interpolation":"LINEAR",
					"output":24
				},
				{
					"input":21,
					"interpolation":"LINEAR",
					"output":23
				},
				{
					"input":21,
					"interpolation":"LINEAR",
					"output":25
				},
				{
					"input":21,
					"interpolation":"LINEAR",
					"output":26
				},
				{
					"input":21,
					"interpolation":"LINEAR",
					"output":27
				},
				{
					"input":21,
					"interpolation":"LINEAR",
					"output":28
				}
			]
		},
		{
			"channels":[
				{
					"sampler":0,
					"target":{
						"node":7,
						"path":"translation"
					}
				},
				{
					"sampler":1,
					"target":{
						"node":7,
						"path":"scale"
					}
				},
				{
					"sampler":2,
					"target":{
						"node":2,
						"path":"rotation"
					}
				},
				{
					"sampler":3,
					"target":{
						"node":0,
						"path":"rotation"
					}
				},
				{
					"sampler":4,
					"target":{
						"node":1,
						"path":"rotation"
					}
				},
				{
					"sampler":5,
					"target":{
						"node":3,
						"path":"rotation"
					}
				},
				{
					"sampler":6,
					"target":{
						"node":4,
						"path":"rotation"
					}
				},
				{
					"sampler":7,
					"target":{
						"node":5,
						"path":"rotation"
					}
				},
				{
					"sampler":8,
					"target":{
						"node":6,
						"path":"rotation"
					}
				},
				{
					"sampler":9,
					"target":{
						"node":7,
						"path":"rotation"
					}
				}
			],
			"name":"unbalanced",
			"samplers":[
				{
					"input":29,
					"interpolation":"CUBICSPLINE",
					"output":30
				},
				{
					"input":29,
					"interpolation":"CUBICSPLINE",
					"output":31
				},
				{
					"input":32,
					"interpolation":"CUBICSPLINE",
					"output":33
				},
				{
					"input":34,
					"interpolation":"CUBICSPLINE",
					"output":35
				},
				{
					"input":36,
					"interpolation":"CUBICSPLINE",
					"output":37
				},
				{
					"input":38,
					"interpolation":"CUBICSPLINE",
					"output":39
				},
				{
					"input":40,
					"interpolation":"CUBICSPLINE",
					"output":41
				},
				{
					"input":42,
					"interpolation":"CUBICSPLINE",
					"output":43
				},
				{
					"input":44,
					"interpolation":"CUBICSPLINE",
					"output":45
				},
				{
					"input":46,
					"interpolation":"LINEAR",
					"output":47
				}
			]
		},
		{
			"channels":[
				{
					"sampler":0,
					"target":{
						"node":7,
						"path":"rotation"
					}
				},
				{
					"sampler":1,
					"target":{
						"node":4,
						"path":"rotation"
					}
				},
				{
					"sampler":2,
					"target":{
						"node":5,
						"path":"rotation"
					}
				},
				{
					"sampler":3,
					"target":{
						"node":6,
						"path":"rotation"
					}
				},
				{
					"sampler":4,
					"target":{
						"node":0,
						"path":"rotation"
					}
				},
				{
					"sampler":5,
					"target":{
						"node":1,
						"path":"rotation"
					}
				},
				{
					"sampler":6,
					"target":{
						"node":3,
						"path":"rotation"
					}
				}
			],
			"name":"walk",
			"samplers":[
				{
					"input":48,
					"interpolation":"CUBICSPLINE",
					"output":49
				},
				{
					"input":50,
					"interpolation":"CUBICSPLINE",
					"output":51
				},
				{
					"input":48,
					"interpolation":"CUBICSPLINE",
					"output":52
				},
				{
					"input":53,
					"interpolation":"CUBICSPLINE",
					"output":54
				},
				{
					"input":48,
					"interpolation":"CUBICSPLINE",
					"output":55
				},
				{
					"input":48,
					"interpolation":"CUBICSPLINE",
					"output":56
				},
				{
					"input":48,
					"interpolation":"CUBICSPLINE",
					"output":57
				}
			]
		},
		{
			"channels":[
				{
					"sampler":0,
					"target":{
						"node":5,
						"path":"rotation"
					}
				},
				{
					"sampler":1,
					"target":{
						"node":0,
						"path":"rotation"
					}
				},
				{
					"sampler":2,
					"target":{
						"node":1,
						"path":"rotation"
					}
				},
				{
					"sampler":3,
					"target":{
						"node":2,
						"path":"rotation"
					}
				}
			],
			"name":"wave",
			"samplers":[
				{
					"input":58,
					"interpolation":"LINEAR",
					"output":59
				},
				{
					"input":58,
					"interpolation":"CUBICSPLINE",
					"output":60
				},
				{
					"input":58,
					"interpolation":"CUBICSPLINE",
					"output":61
				},
				{
					"input":58,
					"interpolation":"CUBICSPLINE",
					"output":62
				}
			]
		}
	],
	"materials":[
		{
			"doubleSided":true,
			"name":"Mdl_0_Mtl_S013_all",
			"pbrMetallicRoughness":{
				"metallicFactor":0
			}
		},
		{
			"doubleSided":true,
			"name":"Mdl_0_Mtl_all_alpha",
			"pbrMetallicRoughness":{
				"metallicFactor":0
			}
		}
	],
	"meshes":[
		{
			"name":"mikumesh",
			"primitives":[
				{
					"attributes":{
						"POSITION":0,
						"NORMAL":1,
						"TEXCOORD_0":2,
						"COLOR_0":3,
						"COLOR_1":4,
						"JOINTS_0":5,
						"WEIGHTS_0":6
					},
					"indices":7,
					"material":0
				},
				{
					"attributes":{
						"POSITION":8,
						"NORMAL":9,
						"TEXCOORD_0":10,
						"COLOR_0":11,
						"COLOR_1":12,
						"JOINTS_0":13,
						"WEIGHTS_0":14
					},
					"indices":15,
					"material":1
				}
			]
		}
	],
	"skins":[
		{
			"inverseBindMatrices":16,
			"joints":[
				8,
				7,
				2,
				0,
				1,
				3,
				4,
				5,
				6
			],
			"name":"Miku"
		}
	],
	"accessors":[
		{
			"bufferView":0,
			"componentType":5126,
			"count":1451,
			"max":[
				1.445448398590088,
				3.2670068740844727,
				1.203319787979126
			],
			"min":[
				-1.5729213953018188,
				0.01279306411743164,
				-1.0125311613082886
			],
			"type":"VEC3"
		},
		{
			"bufferView":1,
			"componentType":5126,
			"count":1451,
			"type":"VEC3"
		},
		{
			"bufferView":2,
			"componentType":5126,
			"count":1451,
			"type":"VEC2"
		},
		{
			"bufferView":3,
			"componentType":5121,
			"count":1451,
			"normalized":true,
			"type":"VEC4"
		},
		{
			"bufferView":4,
			"componentType":5123,
			"count":1451,
			"normalized":true,
			"type":"VEC4"
		},
		{
			"bufferView":5,
			"componentType":5121,
			"count":1451,
			"type":"VEC4"
		},
		{
			"bufferView":6,
			"componentType":5126,
			"count":1451,
			"type":"VEC4"
		},
		{
			"bufferView":7,
			"componentType":5123,
			"count":4206,
			"type":"SCALAR"
		},
		{
			"bufferView":8,
			"componentType":5126,
			"count":134,
			"max":[
				0.4607994556427002,
				1.7785669565200806,
				0.505486786365509
			],
			"min":[
				-0.45260944962501526,
				0.20866906642913818,
				-0.3166302442550659
			],
			"type":"VEC3"
		},
		{
			"bufferView":9,
			"componentType":5126,
			"count":134,
			"type":"VEC3"
		},
		{
			"bufferView":10,
			"componentType":5126,
			"count":134,
			"type":"VEC2"
		},
		{
			"bufferView":11,
			"componentType":5121,
			"count":134,
			"normalized":true,
			"type":"VEC4"
		},
		{
			"bufferView":12,
			"componentType":5123,
			"count":134,
			"normalized":true,
			"type":"VEC4"
		},
		{
			"bufferView":13,
			"componentType":5121,
			"count":134,
			"type":"VEC4"
		},
		{
			"bufferView":14,
			"componentType":5126,
			"count":134,
			"type":"VEC4"
		},
		{
			"bufferView":15,
			"componentType":5123,
			"count":288,
			"type":"SCALAR"
		},
		{
			"bufferView":16,
			"componentType":5126,
			"count":9,
			"type":"MAT4"
		},
		{
			"bufferView":17,
			"componentType":5126,
			"count":3,
			"max":[
				0.3333333333333333
			],
			"min":[
				0
			],
			"type":"SCALAR"
		},
		{
			"bufferView":18,
			"componentType":5126,
			"count":9,
			"type":"VEC4"
		},
		{
			"bufferView":19,
			"componentType":5126,
			"count":9,
			"type":"VEC4"
		},
		{
			"bufferView":20,
			"componentType":5126,
			"count":9,
			"type":"VEC4"
		},
		{
			"bufferView":21,
			"componentType":5126,
			"count":1,
			"max":[
				0
			],
			"min":[
				0
			],
			"type":"SCALAR"
		},
		{
			"bufferView":22,
			"componentType":5126,
			"count":1,
			"type":"VEC4"
		},
		{
			"bufferView":23,
			"componentType":5126,
			"count":1,
			"type":"VEC4"
		},
		{
			"bufferView":24,
			"componentType":5126,
			"count":1,
			"type":"VEC4"
		},
		{
			"bufferView":25,
			"componentType":5126,
			"count":1,
			"type":"VEC4"
		},
		{
			"bufferView":26,
			"componentType":5126,
			"count":1,
			"type":"VEC4"
		},
		{
			"bufferView":27,
			"componentType":5126,
			"count":1,
			"type":"VEC4"
		},
		{
			"bufferView":28,
			"componentType":5126,
			"count":1,
			"type":"VEC4"
		},
		{
			"bufferView":29,
			"componentType":5126,
			"count":2,
			"max":[
				2
			],
			"min":[
				0
			],
			"type":"SCALAR"
		},
		{
			"bufferView":30,
			"componentType":5126,
			"count":6,
			"type":"VEC3"
		},
		{
			"bufferView":31,
			"componentType":5126,
			"count":6,
			"type":"VEC3"
		},
		{
			"bufferView":32,
			"componentType":5126,
			"count":6,
			"max":[
				2
			],
			"min":[
				0
			],
			"type":"SCALAR"
		},
		{
			"bufferView":33,
			"componentType":5126,
			"count":18,
			"type":"VEC4"
		},
		{
			"bufferView":34,
			"componentType":5126,
			"count":3,
			"max":[
				2
			],
			"min":[
				0
			],
			"type":"SCALAR"
		},
		{
			"bufferView":35,
			"componentType":5126,
			"count":9,
			"type":"VEC4"
		},
		{
			"bufferView":36,
			"componentType":5126,
			"count":5,
			"max":[
				2
			],
			"min":[
				0
			],
			"type":"SCALAR"
		},
		{
			"bufferView":37,
			"componentType":5126,
			"count":15,
			"type":"VEC4"
		},
		{
			"bufferView":38,
			"componentType":5126,
			"count":6,
			"max":[
				2
			],
			"min":[
				0
			],
			"type":"SCALAR"
		},
		{
			"bufferView":39,
			"componentType":5126,
			"count":18,
			"type":"VEC4"
		},
		{
			"bufferView":40,
			"componentType":5126,
			"count":4,
			"max":[
				2
			],
			"min":[
				0
			],
			"type":"SCALAR"
		},
		{
			"bufferView":41,
			"componentType":5126,
			"count":12,
			"type":"VEC4"
		},
		{
			"bufferView":42,
			"componentType":5126,
			"count":4,
			"max":[
				2
			],
			"min":[
				0
			],
			"type":"SCALAR"
		},
		{
			"bufferView":43,
			"componentType":5126,
			"count":12,
			"type":"VEC4"
		},
		{
			"bufferView":44,
			"componentType":5126,
			"count":5,
			"max":[
				2
			],
			"min":[
				0
			],
			"type":"SCALAR"
		},
		{
			"bufferView":45,
			"componentType":5126,
			"count":15,
			"type":"VEC4"
		},
		{
			"bufferView":46,
			"componentType":5126,
			"count":121,
			"max":[
				2
			],
			"min":[
				0
			],
			"type":"SCALAR"
		},
		{
			"bufferView":47,
			"componentType":5126,
			"count":121,
			"type":"VEC4"
		},
		{
			"bufferView":48,
			"componentType":5126,
			"count":3,
			"max":[
				1
			],
			"min":[
				0
			],
			"type":"SCALAR"
		},
		{
			"bufferView":49,
			"componentType":5126,
			"count":9,
			"type":"VEC4"
		},
		{
			"bufferView":50,
			"componentType":5126,
			"count":3,
			"max":[
				0.5
			],
			"min":[
				0
			],
			"type":"SCALAR"
		},
		{
			"bufferView":51,
			"componentType":5126,
			"count":9,
			"type":"VEC4"
		},
		{
			"bufferView":52,
			"componentType":5126,
			"count":9,
			"type":"VEC4"
		},
		{
			"bufferView":53,
			"componentType":5126,
			"count":4,
			"max":[
				1
			],
			"min":[
				0
			],
			"type":"SCALAR"
		},
		{
			"bufferView":54,
			"componentType":5126,
			"count":12,
			"type":"VEC4"
		},
		{
			"bufferView":55,
			"componentType":5126,
			"count":9,
			"type":"VEC4"
		},
		{
			"bufferView":56,
			"componentType":5126,
			"count":9,
			"type":"VEC4"
		},
		{
			"bufferView":57,
			"componentType":5126,
			"count":9,
			"type":"VEC4"
		},
		{
			"bufferView":58,
			"componentType":5126,
			"count":3,
			"max":[
				0.5
			],
			"min":[
				0
			],
			"type":"SCALAR"
		},
		{
			"bufferView":59,
			"componentType":5126,
			"count":3,
			"type":"VEC4"
		},
		{
			"bufferView":60,
			"componentType":5126,
			"count":9,
			"type":"VEC4"
		},
		{
			"bufferView":61,
			"componentType":5126,
			"count":9,
			"type":"VEC4"
		},
		{
			"bufferView":62,
			"componentType":5126,
			"count":9,
			"type":"VEC4"
		}
	],
	"bufferViews":[
		{
			"buffer":0,
			"byteLength":17412,
			"byteOffset":0,
			"target":34962
		},
		{
			"buffer":0,
			"byteLength":17412,
			"byteOffset":17412,
			"target":34962
		},
		{
			"buffer":0,
			"byteLength":11608,
			"byteOffset":34824,
			"target":34962
		},
		{
			"buffer":0,
			"byteLength":5804,
			"byteOffset":46432,
			"target":34962
		},
		{
			"buffer":0,
			"byteLength":11608,
			"byteOffset":52236,
			"target":34962
		},
		{
			"buffer":0,
			"byteLength":5804,
			"byteOffset":63844,
			"target":34962
		},
		{
			"buffer":0,
			"byteLength":23216,
			"byteOffset":69648,
			"target":34962
		},
		{
			"buffer":0,
			"byteLength":8412,
			"byteOffset":92864,
			"target":34963
		},
		{
			"buffer":0,
			"byteLength":1608,
			"byteOffset":101276,
			"target":34962
		},
		{
			"buffer":0,
			"byteLength":1608,
			"byteOffset":102884,
			"target":34962
		},
		{
			"buffer":0,
			"byteLength":1072,
			"byteOffset":104492,
			"target":34962
		},
		{
			"buffer":0,
			"byteLength":536,
			"byteOffset":105564,
			"target":34962
		},
		{
			"buffer":0,
			"byteLength":1072,
			"byteOffset":106100,
			"target":34962
		},
		{
			"buffer":0,
			"byteLength":536,
			"byteOffset":107172,
			"target":34962
		},
		{
			"buffer":0,
			"byteLength":2144,
			"byteOffset":107708,
			"target":34962
		},
		{
			"buffer":0,
			"byteLength":576,
			"byteOffset":109852,
			"target":34963
		},
		{
			"buffer":0,
			"byteLength":576,
			"byteOffset":110428
		},
		{
			"buffer":0,
			"byteLength":12,
			"byteOffset":111004
		},
		{
			"buffer":0,
			"byteLength":144,
			"byteOffset":111016
		},
		{
			"buffer":0,
			"byteLength":144,
			"byteOffset":111160
		},
		{
			"buffer":0,
			"byteLength":144,
			"byteOffset":111304
		},
		{
			"buffer":0,
			"byteLength":4,
			"byteOffset":111448
		},
		{
			"buffer":0,
			"byteLength":16,
			"byteOffset":111452
		},
		{
			"buffer":0,
			"byteLength":16,
			"byteOffset":111468
		},
		{
			"buffer":0,
			"byteLength":16,
			"byteOffset":111484
		},
		{
			"buffer":0,
			"byteLength":16,
			"byteOffset":111500
		},
		{
			"buffer":0,
			"byteLength":16,
			"byteOffset":111516
		},
		{
			"buffer":0,
			"byteLength":16,
			"byteOffset":111532
		},
		{
			"buffer":0,
			"byteLength":16,
			"byteOffset":111548
		},
		{
			"buffer":0,
			"byteLength":8,
			"byteOffset":111564
		},
		{
			"buffer":0,
			"byteLength":72,
			"byteOffset":111572
		},
		{
			"buffer":0,
			"byteLength":72,
			"byteOffset":111644
		},
		{
			"buffer":0,
			"byteLength":24,
			"byteOffset":111716
		},
		{
			"buffer":0,
			"byteLength":288,
			"byteOffset":111740
		},
		{
			"buffer":0,
			"byteLength":12,
			"byteOffset":112028
		},
		{
			"buffer":0,
			"byteLength":144,
			"byteOffset":112040
		},
		{
			"buffer":0,
			"byteLength":20,
			"byteOffset":112184
		},
		{
			"buffer":0,
			"byteLength":240,
			"byteOffset":112204
		},
		{
			"buffer":0,
			"byteLength":24,
			"byteOffset":112444
		},
		{
			"buffer":0,
			"byteLength":288,
			"byteOffset":112468
		},
		{
			"buffer":0,
			"byteLength":16,
			"byteOffset":112756
		},
		{
			"buffer":0,
			"byteLength":192,
			"byteOffset":112772
		},
		{
			"buffer":0,
			"byteLength":16,
			"byteOffset":112964
		},
		{
			"buffer":0,
			"byteLength":192,
			"byteOffset":112980
		},
		{
			"buffer":0,
			"byteLength":20,
			"byteOffset":113172
		},
		{
			"buffer":0,
			"byteLength":240,
			"byteOffset":113192
		},
		{
			"buffer":0,
			"byteLength":484,
			"byteOffset":113432
		},
		{
			"buffer":0,
			"byteLength":1936,
			"byteOffset":113916
		},
		{
			"buffer":0,
			"byteLength":12,
			"byteOffset":115852
		},
		{
			"buffer":0,
			"byteLength":144,
			"byteOffset":115864
		},
		{
			"buffer":0,
			"byteLength":12,
			"byteOffset":116008
		},
		{
			"buffer":0,
			"byteLength":144,
			"byteOffset":116020
		},
		{
			"buffer":0,
			"byteLength":144,
			"byteOffset":116164
		},
		{
			"buffer":0,
			"byteLength":16,
			"byteOffset":116308
		},
		{
			"buffer":0,
			"byteLength":192,
			"byteOffset":116324
		},
		{
			"buffer":0,
			"byteLength":144,
			"byteOffset":116516
		},
		{
			"buffer":0,
			"byteLength":144,
			"byteOffset":116660
		},
		{
			"buffer":0,
			"byteLength":144,
			"byteOffset":116804
		},
		{
			"buffer":0,
			"byteLength":12,
			"byteOffset":116948
		},
		{
			"buffer":0,
			"byteLength":48,
			"byteOffset":116960
		},
		{
			"buffer":0,
			"byteLength":144,
			"byteOffset":117008
		},
		{
			"buffer":0,
			"byteLength":144,
			"byteOffset":117152
		},
		{
			"buffer":0,
			"byteLength":144,
			"byteOffset":117296
		}
	],
	"buffers":[
		{
			"byteLength":117440,
			"uri":"data:application/octet-stream;base64,"
		}
	]
}
