{
	"asset":{
		"copyright":"stann",
		"generator":"Khronos glTF Blender I/O v4.3.47",
		"version":"2.0"
	},
	"scene":0,
	"scenes":[
		{
			"name":"Scene",
			"nodes":[
				0
			]
		}
	],
	"nodes":[
		{
			"mesh":0,
			"name":"gachapon_bottom"
		}
	],
	"animations":[
		{
			"channels":[
				{
					"sampler":0,
					"target":{
						"node":0,
						"path":"translation"
					}
				},
				{
					"sampler":1,
					"target":{
						"node":0,
						"path":"rotation"
					}
				},
				{
					"sampler":2,
					"target":{
						"node":0,
						"path":"scale"
					}
				}
			],
			"name":"gachapon_bottomAction",
			"samplers":[
				{
					"input":4,
					"interpolation":"LINEAR",
					"output":5
				},
				{
					"input":4,
					"interpolation":"LINEAR",
					"output":6
				},
				{
					"input":4,
					"interpolation":"LINEAR",
					"output":7
				}
			]
		}
	],
	"meshes":[
		{
			"name":"Sphere",
			"primitives":[
				{
					"attributes":{
						"POSITION":0,
						"NORMAL":1,
						"COLOR_0":2
					},
					"indices":3
				}
			]
		}
	],
	"accessors":[
		{
			"bufferView":0,
			"componentType":5126,
			"count":225,
			"max":[
				10,
				10,
				1.9341518878936768
			],
			"min":[
				-9.999999046325684,
				-10,
				-9.37283992767334
			],
			"type":"VEC3"
		},
		{
			"bufferView":1,
			"componentType":5126,
			"count":225,
			"type":"VEC3"
		},
		{
			"bufferView":2,
			"componentType":5123,
			"count":225,
			"normalized":true,
			"type":"VEC4"
		},
		{
			"bufferView":3,
			"componentType":5123,
			"count":912,
			"type":"SCALAR"
		},
		{
			"bufferView":4,
			"componentType":5126,
			"count":45,
			"max":[
				1.8333333333333333
			],
			"min":[
				0
			],
			"type":"SCALAR"
		},
		{
			"bufferView":5,
			"componentType":5126,
			"count":45,
			"type":"VEC3"
		},
		{
			"bufferView":6,
			"componentType":5126,
			"count":45,
			"type":"VEC4"
		},
		{
			"bufferView":7,
			"componentType":5126,
			"count":45,
			"type":"VEC3"
		}
	],
	"bufferViews":[
		{
			"buffer":0,
			"byteLength":2700,
			"byteOffset":0,
			"target":34962
		},
		{
			"buffer":0,
			"byteLength":2700,
			"byteOffset":2700,
			"target":34962
		},
		{
			"buffer":0,
			"byteLength":1800,
			"byteOffset":5400,
			"target":34962
		},
		{
			"buffer":0,
			"byteLength":1824,
			"byteOffset":7200,
			"target":34963
		},
		{
			"buffer":0,
			"byteLength":180,
			"byteOffset":9024
		},
		{
			"buffer":0,
			"byteLength":540,
			"byteOffset":9204
		},
		{
			"buffer":0,
			"byteLength":720,
			"byteOffset":9744
		},
		{
			"buffer":0,
			"byteLength":540,
			"byteOffset":10464
		}
	],
	"buffers":[
		{
			"byteLength":11004,
			"uri":"gachapon_bottom.bin"
		}
	]
}
