{
	"asset":{
		"copyright":"stann",
		"generator":"Khronos glTF Blender I/O v4.3.47",
		"version":"2.0"
	},
	"scene":0,
	"scenes":[
		{
			"name":"Scene",
			"nodes":[
				0
			]
		}
	],
	"nodes":[
		{
			"mesh":0,
			"name":"gachapon_top"
		}
	],
	"animations":[
		{
			"channels":[
				{
					"sampler":0,
					"target":{
						"node":0,
						"path":"translation"
					}
				},
				{
					"sampler":1,
					"target":{
						"node":0,
						"path":"rotation"
					}
				},
				{
					"sampler":2,
					"target":{
						"node":0,
						"path":"scale"
					}
				}
			],
			"name":"gachapon_topAction",
			"samplers":[
				{
					"input":4,
					"interpolation":"LINEAR",
					"output":5
				},
				{
					"input":4,
					"interpolation":"LINEAR",
					"output":6
				},
				{
					"input":4,
					"interpolation":"LINEAR",
					"output":7
				}
			]
		}
	],
	"meshes":[
		{
			"name":"Sphere.001",
			"primitives":[
				{
					"attributes":{
						"POSITION":0,
						"NORMAL":1,
						"COLOR_0":2
					},
					"indices":3
				}
			]
		}
	],
	"accessors":[
		{
			"bufferView":0,
			"componentType":5126,
			"count":113,
			"max":[
				10,
				10,
				12
			],
			"min":[
				-9.999999046325684,
				-10,
				0
			],
			"type":"VEC3"
		},
		{
			"bufferView":1,
			"componentType":5126,
			"count":113,
			"type":"VEC3"
		},
		{
			"bufferView":2,
			"componentType":5123,
			"count":113,
			"normalized":true,
			"type":"VEC4"
		},
		{
			"bufferView":3,
			"componentType":5123,
			"count":528,
			"type":"SCALAR"
		},
		{
			"bufferView":4,
			"componentType":5126,
			"count":45,
			"max":[
				1.8333333333333333
			],
			"min":[
				0
			],
			"type":"SCALAR"
		},
		{
			"bufferView":5,
			"componentType":5126,
			"count":45,
			"type":"VEC3"
		},
		{
			"bufferView":6,
			"componentType":5126,
			"count":45,
			"type":"VEC4"
		},
		{
			"bufferView":7,
			"componentType":5126,
			"count":45,
			"type":"VEC3"
		}
	],
	"bufferViews":[
		{
			"buffer":0,
			"byteLength":1356,
			"byteOffset":0,
			"target":34962
		},
		{
			"buffer":0,
			"byteLength":1356,
			"byteOffset":1356,
			"target":34962
		},
		{
			"buffer":0,
			"byteLength":904,
			"byteOffset":2712,
			"target":34962
		},
		{
			"buffer":0,
			"byteLength":1056,
			"byteOffset":3616,
			"target":34963
		},
		{
			"buffer":0,
			"byteLength":180,
			"byteOffset":4672
		},
		{
			"buffer":0,
			"byteLength":540,
			"byteOffset":4852
		},
		{
			"buffer":0,
			"byteLength":720,
			"byteOffset":5392
		},
		{
			"buffer":0,
			"byteLength":540,
			"byteOffset":6112
		}
	],
	"buffers":[
		{
			"byteLength":6652,
			"uri":"gachapon_top.bin"
		}
	]
}
